<svg xmlns="http://www.w3.org/2000/svg" xmlns:xlink="http://www.w3.org/1999/xlink" contentStyleType="text/css" height="704.9px" preserveAspectRatio="none" style="width:923px;height:704px;background:#FFFFFF;" version="1.1" viewBox="0 0 923 704" width="923.3px" zoomAndPan="magnify"><defs/><g><!--cluster productworld--><g id="cluster_productworld"><path d="M5.95,4.2 L69.2542,4.2 A2.625,2.625 0 0 1 71.0042,5.95 L75.9042,19.669 L916.65,19.669 A1.75,1.75 0 0 1 918.4,21.419 L918.4,685.65 A1.75,1.75 0 0 1 916.65,687.4 L5.95,687.4 A1.75,1.75 0 0 1 4.2,685.65 L4.2,5.95 A1.75,1.75 0 0 1 5.95,4.2 " fill="none" style="stroke:#000000;stroke-width:1.0499999999999998;"/><line style="stroke:#000000;stroke-width:1.0499999999999998;" x1="4.2" x2="75.9042" y1="19.669" y2="19.669"/><text fill="#000000" font-family="sans-serif" font-size="9.8" font-weight="bold" lengthAdjust="spacing" textLength="62.6042" x="7" y="14.7923">productworld</text></g><!--cluster base--><g id="cluster_base"><path d="M576.45,114.8 L599.4871,114.8 A2.625,2.625 0 0 1 601.2371,116.55 L606.1371,130.269 L899.85,130.269 A1.75,1.75 0 0 1 901.6,132.019 L901.6,668.85 A1.75,1.75 0 0 1 899.85,670.6 L576.45,670.6 A1.75,1.75 0 0 1 574.7,668.85 L574.7,116.55 A1.75,1.75 0 0 1 576.45,114.8 " fill="none" style="stroke:#000000;stroke-width:1.0499999999999998;"/><line style="stroke:#000000;stroke-width:1.0499999999999998;" x1="574.7" x2="606.1371" y1="130.269" y2="130.269"/><text fill="#000000" font-family="sans-serif" font-size="9.8" font-weight="bold" lengthAdjust="spacing" textLength="22.3371" x="577.5" y="125.3923">base</text></g><!--cluster customer--><g id="cluster_customer"><path d="M680.05,144.9 L724.8644,144.9 A2.625,2.625 0 0 1 726.6144,146.65 L731.5144,160.369 L822.15,160.369 A1.75,1.75 0 0 1 823.9,162.119 L823.9,291.55 A1.75,1.75 0 0 1 822.15,293.3 L680.05,293.3 A1.75,1.75 0 0 1 678.3,291.55 L678.3,146.65 A1.75,1.75 0 0 1 680.05,144.9 " fill="none" style="stroke:#000000;stroke-width:1.0499999999999998;"/><line style="stroke:#000000;stroke-width:1.0499999999999998;" x1="678.3" x2="731.5144" y1="160.369" y2="160.369"/><text fill="#000000" font-family="sans-serif" font-size="9.8" font-weight="bold" lengthAdjust="spacing" textLength="44.1144" x="681.1" y="155.4923">customer</text></g><!--cluster base--><g id="cluster_base"><path d="M593.25,310.1 L616.2871,310.1 A2.625,2.625 0 0 1 618.0371,311.85 L622.9371,325.569 L883.05,325.569 A1.75,1.75 0 0 1 884.8,327.319 L884.8,652.05 A1.75,1.75 0 0 1 883.05,653.8 L593.25,653.8 A1.75,1.75 0 0 1 591.5,652.05 L591.5,311.85 A1.75,1.75 0 0 1 593.25,310.1 " fill="none" style="stroke:#000000;stroke-width:1.0499999999999998;"/><line style="stroke:#000000;stroke-width:1.0499999999999998;" x1="591.5" x2="622.9371" y1="325.569" y2="325.569"/><text fill="#000000" font-family="sans-serif" font-size="9.8" font-weight="bold" lengthAdjust="spacing" textLength="22.3371" x="594.3" y="320.6923">base</text></g><!--cluster products--><g id="cluster_products"><path d="M22.75,34.3 L110.0183,34.3 A2.625,2.625 0 0 1 111.7683,36.05 L116.6683,49.769 L556.15,49.769 A1.75,1.75 0 0 1 557.9,51.519 L557.9,274.4 A1.75,1.75 0 0 1 556.15,276.15 L22.75,276.15 A1.75,1.75 0 0 1 21,274.4 L21,36.05 A1.75,1.75 0 0 1 22.75,34.3 " fill="none" style="stroke:#000000;stroke-width:1.0499999999999998;"/><line style="stroke:#000000;stroke-width:1.0499999999999998;" x1="21" x2="116.6683" y1="49.769" y2="49.769"/><text fill="#000000" font-family="sans-serif" font-size="9.8" font-weight="bold" lengthAdjust="spacing" textLength="86.5683" x="23.8" y="44.8923">products.products</text></g><!--class Customer--><g id="elem_Customer"><rect codeLine="4" fill="#F1F1F1" height="112.4833" id="Customer" rx="1.75" ry="1.75" style="stroke:#181818;stroke-width:0.3499999999999999;" width="122.5164" x="689.85" y="169.4"/><ellipse cx="726.8943" cy="180.6" fill="#ADD1B2" rx="7.7" ry="7.7" style="stroke:#181818;stroke-width:0.6999999999999998;"/><path d="M725.2537,180.4906 Q725.2537,181.8031 725.6583,182.5141 Q726.063,183.2141 726.8724,183.2141 Q727.813,183.2141 728.2724,181.8031 L729.8583,182.0984 Q729.0818,184.5703 726.8615,184.5703 Q725.2208,184.5703 724.3677,183.5312 Q723.5146,182.4922 723.5146,180.4906 Q723.5146,176.4875 726.8068,176.4875 Q727.8896,176.4875 728.6115,177.0562 Q729.3443,177.625 729.6943,178.7516 L728.1083,179.1344 Q727.9443,178.5219 727.6052,178.1828 Q727.2662,177.8328 726.8287,177.8328 Q725.2537,177.8328 725.2537,180.4906 Z " fill="#000000"/><text fill="#000000" font-family="sans-serif" font-size="9.8" lengthAdjust="spacing" textLength="42.4778" x="741.2443" y="184.1578">Customer</text><line style="stroke:#181818;stroke-width:0.3499999999999999;" x1="690.55" x2="811.6664" y1="191.8" y2="191.8"/><text fill="#000000" font-family="sans-serif" font-size="9.8" lengthAdjust="spacing" textLength="82.2521" x="694.05" y="203.7923">customer_id: None</text><text fill="#000000" font-family="sans-serif" font-size="9.8" lengthAdjust="spacing" textLength="53.388" x="694.05" y="215.0613">name: None</text><text fill="#000000" font-family="sans-serif" font-size="9.8" lengthAdjust="spacing" textLength="45.2006" x="694.05" y="226.3304">orders: list</text><text fill="#000000" font-family="sans-serif" font-size="9.8" lengthAdjust="spacing" textLength="106.2018" x="694.05" y="237.5994">newestOrder: NewOrder</text><line style="stroke:#181818;stroke-width:0.3499999999999999;" x1="690.55" x2="811.6664" y1="242.4762" y2="242.4762"/><text fill="#000000" font-family="sans-serif" font-size="9.8" lengthAdjust="spacing" textLength="86.8649" x="694.05" y="254.4685">Customer() -&gt; None</text><text fill="#000000" font-family="sans-serif" font-size="9.8" lengthAdjust="spacing" textLength="114.1164" x="694.05" y="265.7375">add_order(Order) -&gt; None</text><text fill="#000000" font-family="sans-serif" font-size="9.8" lengthAdjust="spacing" textLength="98.3302" x="694.05" y="277.0065">get_total_spent() -&gt; int</text></g><!--class Methods--><g id="elem_Methods"><rect codeLine="13" fill="#F1F1F1" height="56.1381" id="Methods" rx="1.75" ry="1.75" style="stroke:#181818;stroke-width:0.3499999999999999;" width="123.0476" x="602.7" y="334.6"/><ellipse cx="642.4551" cy="345.8" fill="#E3664A" rx="7.7" ry="7.7" style="stroke:#181818;stroke-width:0.6999999999999998;"/><path d="M645.8676,344.5641 Q645.8676,346.2922 645.3863,347.3203 Q644.9051,348.3484 644.0957,348.3484 Q643.2645,348.3484 643.2645,347.4297 L643.2645,347.3859 L643.2754,347.1562 L643.2426,347.1562 Q643.0238,347.7031 642.652,348.0312 Q642.291,348.3484 641.8754,348.3484 Q641.252,348.3484 640.902,347.7687 Q640.5629,347.1781 640.5629,346.1062 Q640.5629,345.1766 640.8473,344.3453 Q641.1316,343.5141 641.6129,343.0328 Q642.0941,342.5516 642.6957,342.5516 Q643.0785,342.5516 643.3191,342.8031 Q643.5707,343.0547 643.6473,343.5578 L643.6801,343.5578 L643.866,342.6828 L644.6535,342.6828 L644.0848,345.625 Q643.8441,346.85 643.8441,347.2437 Q643.8441,347.4406 643.8988,347.5391 Q643.9645,347.6375 644.1285,347.6375 Q644.566,347.6375 644.8285,346.8062 Q645.102,345.9641 645.102,344.575 Q645.102,343 644.4785,342.0375 Q643.866,341.0641 642.8488,341.0641 Q641.9848,341.0641 641.3395,341.6984 Q640.6941,342.3219 640.3441,343.4484 Q640.0051,344.575 640.0051,345.9641 Q640.0051,347.7578 640.6613,348.8078 Q641.3285,349.8469 642.466,349.8469 Q643.0129,349.8469 643.516,349.6391 Q644.0191,349.4422 644.6098,348.9281 L645.0254,349.4969 Q644.3582,350.0766 643.7238,350.3281 Q643.1004,350.5906 642.4113,350.5906 Q641.4488,350.5906 640.716,350.0219 Q639.9941,349.4641 639.6004,348.4031 Q639.2066,347.3422 639.2066,345.9641 Q639.2066,344.3016 639.6551,343.0219 Q640.1035,341.7312 640.9348,341.0312 Q641.766,340.3312 642.8598,340.3312 Q643.7785,340.3312 644.4566,340.8562 Q645.1348,341.3812 645.4957,342.3437 Q645.8676,343.3062 645.8676,344.5641 Z M643.341,344.3891 Q643.341,343.2625 642.7066,343.2625 Q642.3566,343.2625 642.0723,343.6672 Q641.7879,344.0609 641.6238,344.7281 Q641.4707,345.3953 641.4707,346.0953 Q641.4707,347.6156 642.0066,347.6156 Q642.4223,347.6156 642.7176,347.1125 Q643.0129,346.6094 643.177,345.7016 Q643.341,344.7937 643.341,344.3891 Z " fill="#000000"/><text fill="#000000" font-family="sans-serif" font-size="9.8" lengthAdjust="spacing" textLength="37.5874" x="656.8051" y="349.3578">Methods</text><line style="stroke:#181818;stroke-width:0.3499999999999999;" x1="603.4" x2="725.0476" y1="357" y2="357"/><line style="stroke:#181818;stroke-width:0.3499999999999999;" x1="603.4" x2="725.0476" y1="362.6" y2="362.6"/><text fill="#000000" font-family="sans-serif" font-size="9.8" lengthAdjust="spacing" textLength="114.6476" x="606.9" y="374.5923">fancyFunc(Order) -&gt; None</text><text fill="#000000" font-family="sans-serif" font-size="9.8" lengthAdjust="spacing" textLength="89.5973" x="606.9" y="385.8613">funkyFunc() -&gt; None</text></g><!--class Order--><g id="elem_Order"><rect codeLine="17" fill="#F1F1F1" height="89.9452" id="Order" rx="1.75" ry="1.75" style="stroke:#181818;stroke-width:0.3499999999999999;" width="111.611" x="602.35" y="432.6"/><ellipse cx="642.6554" cy="443.8" fill="#ADD1B2" rx="7.7" ry="7.7" style="stroke:#181818;stroke-width:0.6999999999999998;"/><path d="M641.0147,443.6906 Q641.0147,445.0031 641.4194,445.7141 Q641.8241,446.4141 642.6335,446.4141 Q643.5741,446.4141 644.0335,445.0031 L645.6194,445.2984 Q644.8429,447.7703 642.6226,447.7703 Q640.9819,447.7703 640.1288,446.7312 Q639.2757,445.6922 639.2757,443.6906 Q639.2757,439.6875 642.5679,439.6875 Q643.6507,439.6875 644.3726,440.2562 Q645.1054,440.825 645.4554,441.9516 L643.8694,442.3344 Q643.7054,441.7219 643.3663,441.3828 Q643.0272,441.0328 642.5897,441.0328 Q641.0147,441.0328 641.0147,443.6906 Z " fill="#000000"/><text fill="#000000" font-family="sans-serif" font-size="9.8" lengthAdjust="spacing" textLength="25.0503" x="657.0054" y="447.3578">Order</text><line style="stroke:#181818;stroke-width:0.3499999999999999;" x1="603.05" x2="713.261" y1="455" y2="455"/><text fill="#000000" font-family="sans-serif" font-size="9.8" lengthAdjust="spacing" textLength="64.8293" x="606.55" y="466.9923">order_id: None</text><text fill="#000000" font-family="sans-serif" font-size="9.8" lengthAdjust="spacing" textLength="71.9065" x="606.55" y="478.2613">product: Product</text><text fill="#000000" font-family="sans-serif" font-size="9.8" lengthAdjust="spacing" textLength="63.1976" x="606.55" y="489.5304">quantity: None</text><line style="stroke:#181818;stroke-width:0.3499999999999999;" x1="603.05" x2="713.261" y1="494.4071" y2="494.4071"/><text fill="#000000" font-family="sans-serif" font-size="9.8" lengthAdjust="spacing" textLength="103.211" x="606.55" y="506.3994">Order(Product) -&gt; None</text><text fill="#000000" font-family="sans-serif" font-size="9.8" lengthAdjust="spacing" textLength="93.9613" x="606.55" y="517.6685">calculate_total() -&gt; int</text></g><!--class NewOrder--><g id="elem_NewOrder"><rect codeLine="24" fill="#F1F1F1" height="89.9452" id="NewOrder" rx="1.75" ry="1.75" style="stroke:#181818;stroke-width:0.3499999999999999;" width="136.135" x="737.8" y="432.6"/><ellipse cx="780.5649" cy="443.8" fill="#ADD1B2" rx="7.7" ry="7.7" style="stroke:#181818;stroke-width:0.6999999999999998;"/><path d="M778.9243,443.6906 Q778.9243,445.0031 779.329,445.7141 Q779.7337,446.4141 780.5431,446.4141 Q781.4837,446.4141 781.9431,445.0031 L783.529,445.2984 Q782.7524,447.7703 780.5321,447.7703 Q778.8915,447.7703 778.0384,446.7312 Q777.1853,445.6922 777.1853,443.6906 Q777.1853,439.6875 780.4774,439.6875 Q781.5603,439.6875 782.2821,440.2562 Q783.0149,440.825 783.3649,441.9516 L781.779,442.3344 Q781.6149,441.7219 781.2759,441.3828 Q780.9368,441.0328 780.4993,441.0328 Q778.9243,441.0328 778.9243,443.6906 Z " fill="#000000"/><text fill="#000000" font-family="sans-serif" font-size="9.8" lengthAdjust="spacing" textLength="44.6551" x="794.9149" y="447.3578">NewOrder</text><line style="stroke:#181818;stroke-width:0.3499999999999999;" x1="738.5" x2="873.235" y1="455" y2="455"/><text fill="#000000" font-family="sans-serif" font-size="9.8" lengthAdjust="spacing" textLength="64.8293" x="742" y="466.9923">order_id: None</text><text fill="#000000" font-family="sans-serif" font-size="9.8" lengthAdjust="spacing" textLength="71.9065" x="742" y="478.2613">product: Product</text><text fill="#000000" font-family="sans-serif" font-size="9.8" lengthAdjust="spacing" textLength="63.1976" x="742" y="489.5304">quantity: None</text><line style="stroke:#181818;stroke-width:0.3499999999999999;" x1="738.5" x2="873.235" y1="494.4071" y2="494.4071"/><text fill="#000000" font-family="sans-serif" font-size="9.8" lengthAdjust="spacing" textLength="122.8158" x="742" y="506.3994">NewOrder(Product) -&gt; None</text><text fill="#000000" font-family="sans-serif" font-size="9.8" lengthAdjust="spacing" textLength="127.735" x="742" y="517.6685">calculate_total(Product) -&gt; int</text></g><!--class Product--><g id="elem_Product"><rect codeLine="31" fill="#F1F1F1" height="78.6762" id="Product" rx="1.75" ry="1.75" style="stroke:#181818;stroke-width:0.3499999999999999;" width="93.1021" x="607.25" y="564.2"/><ellipse cx="634.3678" cy="575.4" fill="#A9DCDF" rx="7.7" ry="7.7" style="stroke:#181818;stroke-width:0.6999999999999998;"/><path d="M638.01,578.55 L636.3037,578.55 L635.7678,576.6359 L633.1209,576.6359 L632.585,578.55 L630.8678,578.55 L633.4381,570.7078 L635.4397,570.7078 L638.01,578.55 Z M634.4444,571.7687 Q634.3897,572.0094 634.2694,572.5016 Q634.149,572.9828 633.4819,575.3453 L635.4069,575.3453 Q634.7287,572.95 634.6084,572.4797 Q634.4881,572.0094 634.4444,571.7687 Z " fill="#000000"/><text fill="#000000" font-family="sans-serif" font-size="9.8" font-style="italic" lengthAdjust="spacing" textLength="33.7736" x="647.8606" y="578.9578">Product</text><line style="stroke:#181818;stroke-width:0.3499999999999999;" x1="607.95" x2="699.6521" y1="586.6" y2="586.6"/><text fill="#000000" font-family="sans-serif" font-size="9.8" lengthAdjust="spacing" textLength="74.6389" x="611.45" y="598.5923">product_id: None</text><text fill="#000000" font-family="sans-serif" font-size="9.8" lengthAdjust="spacing" textLength="53.388" x="611.45" y="609.8613">name: None</text><line style="stroke:#181818;stroke-width:0.3499999999999999;" x1="607.95" x2="699.6521" y1="614.7381" y2="614.7381"/><text fill="#000000" font-family="sans-serif" font-size="9.8" lengthAdjust="spacing" textLength="78.1607" x="611.45" y="626.7304">Product() -&gt; None</text><text fill="#000000" font-family="sans-serif" font-size="9.8" lengthAdjust="spacing" textLength="84.7021" x="611.45" y="637.9994">get_price() -&gt; None</text></g><!--class Methods--><g id="elem_Methods"><rect codeLine="37" fill="#F1F1F1" height="44.869" id="Methods" rx="1.75" ry="1.75" style="stroke:#181818;stroke-width:0.3499999999999999;" width="244.8824" x="301.7" y="58.8"/><ellipse cx="402.3725" cy="70" fill="#E3664A" rx="7.7" ry="7.7" style="stroke:#181818;stroke-width:0.6999999999999998;"/><path d="M405.785,68.7641 Q405.785,70.4922 405.3038,71.5203 Q404.8225,72.5484 404.0131,72.5484 Q403.1819,72.5484 403.1819,71.6297 L403.1819,71.5859 L403.1928,71.3562 L403.16,71.3562 Q402.9413,71.9031 402.5694,72.2312 Q402.2084,72.5484 401.7928,72.5484 Q401.1694,72.5484 400.8194,71.9687 Q400.4803,71.3781 400.4803,70.3062 Q400.4803,69.3766 400.7647,68.5453 Q401.0491,67.7141 401.5303,67.2328 Q402.0116,66.7516 402.6131,66.7516 Q402.9959,66.7516 403.2366,67.0031 Q403.4881,67.2547 403.5647,67.7578 L403.5975,67.7578 L403.7834,66.8828 L404.5709,66.8828 L404.0022,69.825 Q403.7616,71.05 403.7616,71.4437 Q403.7616,71.6406 403.8163,71.7391 Q403.8819,71.8375 404.0459,71.8375 Q404.4834,71.8375 404.7459,71.0062 Q405.0194,70.1641 405.0194,68.775 Q405.0194,67.2 404.3959,66.2375 Q403.7834,65.2641 402.7663,65.2641 Q401.9022,65.2641 401.2569,65.8984 Q400.6116,66.5219 400.2616,67.6484 Q399.9225,68.775 399.9225,70.1641 Q399.9225,71.9578 400.5788,73.0078 Q401.2459,74.0469 402.3834,74.0469 Q402.9303,74.0469 403.4334,73.8391 Q403.9366,73.6422 404.5272,73.1281 L404.9428,73.6969 Q404.2756,74.2766 403.6413,74.5281 Q403.0178,74.7906 402.3288,74.7906 Q401.3663,74.7906 400.6334,74.2219 Q399.9116,73.6641 399.5178,72.6031 Q399.1241,71.5422 399.1241,70.1641 Q399.1241,68.5016 399.5725,67.2219 Q400.0209,65.9312 400.8522,65.2312 Q401.6834,64.5312 402.7772,64.5312 Q403.6959,64.5312 404.3741,65.0562 Q405.0522,65.5812 405.4131,66.5437 Q405.785,67.5062 405.785,68.7641 Z M403.2584,68.5891 Q403.2584,67.4625 402.6241,67.4625 Q402.2741,67.4625 401.9897,67.8672 Q401.7053,68.2609 401.5413,68.9281 Q401.3881,69.5953 401.3881,70.2953 Q401.3881,71.8156 401.9241,71.8156 Q402.3397,71.8156 402.635,71.3125 Q402.9303,70.8094 403.0944,69.9016 Q403.2584,68.9937 403.2584,68.5891 Z " fill="#000000"/><text fill="#000000" font-family="sans-serif" font-size="9.8" lengthAdjust="spacing" textLength="37.5874" x="416.7225" y="73.5578">Methods</text><line style="stroke:#181818;stroke-width:0.3499999999999999;" x1="302.4" x2="545.8824" y1="81.2" y2="81.2"/><line style="stroke:#181818;stroke-width:0.3499999999999999;" x1="302.4" x2="545.8824" y1="86.8" y2="86.8"/><text fill="#000000" font-family="sans-serif" font-size="9.8" lengthAdjust="spacing" textLength="236.4824" x="305.9" y="98.7923">create_product(str) -&gt; PhysicalProduct | DigitalProduct</text></g><!--class Productfactory--><g id="elem_Productfactory"><rect codeLine="40" fill="#F1F1F1" height="44.869" id="Productfactory" rx="1.75" ry="1.75" style="stroke:#181818;stroke-width:0.3499999999999999;" width="244.8824" x="32.2" y="58.8"/><ellipse cx="120.0746" cy="70" fill="#ADD1B2" rx="7.7" ry="7.7" style="stroke:#181818;stroke-width:0.6999999999999998;"/><path d="M118.434,69.8906 Q118.434,71.2031 118.8387,71.9141 Q119.2434,72.6141 120.0527,72.6141 Q120.9934,72.6141 121.4527,71.2031 L123.0387,71.4984 Q122.2621,73.9703 120.0418,73.9703 Q118.4012,73.9703 117.548,72.9312 Q116.6949,71.8922 116.6949,69.8906 Q116.6949,65.8875 119.9871,65.8875 Q121.0699,65.8875 121.7918,66.4562 Q122.5246,67.025 122.8746,68.1516 L121.2887,68.5344 Q121.1246,67.9219 120.7855,67.5828 Q120.4465,67.2328 120.009,67.2328 Q118.434,67.2328 118.434,69.8906 Z " fill="#000000"/><text fill="#000000" font-family="sans-serif" font-size="9.8" lengthAdjust="spacing" textLength="63.1832" x="134.4246" y="73.5578">Productfactory</text><line style="stroke:#181818;stroke-width:0.3499999999999999;" x1="32.9" x2="276.3824" y1="81.2" y2="81.2"/><line style="stroke:#181818;stroke-width:0.3499999999999999;" x1="32.9" x2="276.3824" y1="86.8" y2="86.8"/><text fill="#000000" font-family="sans-serif" font-size="9.8" lengthAdjust="spacing" textLength="236.4824" x="36.4" y="98.7923">create_product(str) -&gt; PhysicalProduct | DigitalProduct</text></g><!--class DigitalProduct--><g id="elem_DigitalProduct"><rect codeLine="43" fill="#F1F1F1" height="78.6762" id="DigitalProduct" rx="1.75" ry="1.75" style="stroke:#181818;stroke-width:0.3499999999999999;" width="113.7931" x="432.25" y="186.55"/><ellipse cx="456.4242" cy="197.75" fill="#ADD1B2" rx="7.7" ry="7.7" style="stroke:#181818;stroke-width:0.6999999999999998;"/><path d="M454.7836,197.6406 Q454.7836,198.9531 455.1883,199.6641 Q455.5929,200.3641 456.4023,200.3641 Q457.3429,200.3641 457.8023,198.9531 L459.3883,199.2484 Q458.6117,201.7203 456.3914,201.7203 Q454.7508,201.7203 453.8976,200.6812 Q453.0445,199.6422 453.0445,197.6406 Q453.0445,193.6375 456.3367,193.6375 Q457.4195,193.6375 458.1414,194.2062 Q458.8742,194.775 459.2242,195.9016 L457.6383,196.2844 Q457.4742,195.6719 457.1351,195.3328 Q456.7961,194.9828 456.3586,194.9828 Q454.7836,194.9828 454.7836,197.6406 Z " fill="#000000"/><text fill="#000000" font-family="sans-serif" font-size="9.8" lengthAdjust="spacing" textLength="61.006" x="469.2629" y="201.3078">DigitalProduct</text><line style="stroke:#181818;stroke-width:0.3499999999999999;" x1="432.95" x2="545.3431" y1="208.95" y2="208.95"/><text fill="#000000" font-family="sans-serif" font-size="9.8" lengthAdjust="spacing" textLength="50.1149" x="436.45" y="220.9423">price: None</text><text fill="#000000" font-family="sans-serif" font-size="9.8" lengthAdjust="spacing" textLength="65.3748" x="436.45" y="232.2113">discount: None</text><line style="stroke:#181818;stroke-width:0.3499999999999999;" x1="432.95" x2="545.3431" y1="237.0881" y2="237.0881"/><text fill="#000000" font-family="sans-serif" font-size="9.8" lengthAdjust="spacing" textLength="105.3931" x="436.45" y="249.0804">DigitalProduct() -&gt; None</text><text fill="#000000" font-family="sans-serif" font-size="9.8" lengthAdjust="spacing" textLength="71.6242" x="436.45" y="260.3494">get_price() -&gt; int</text></g><!--class PhysicalProduct--><g id="elem_PhysicalProduct"><rect codeLine="49" fill="#F1F1F1" height="67.4071" id="PhysicalProduct" rx="1.75" ry="1.75" style="stroke:#181818;stroke-width:0.3499999999999999;" width="123.0523" x="284.2" y="192.15"/><ellipse cx="308.3742" cy="203.35" fill="#ADD1B2" rx="7.7" ry="7.7" style="stroke:#181818;stroke-width:0.6999999999999998;"/><path d="M306.7336,203.2406 Q306.7336,204.5531 307.1383,205.2641 Q307.5429,205.9641 308.3523,205.9641 Q309.2929,205.9641 309.7523,204.5531 L311.3383,204.8484 Q310.5617,207.3203 308.3414,207.3203 Q306.7008,207.3203 305.8476,206.2812 Q304.9945,205.2422 304.9945,203.2406 Q304.9945,199.2375 308.2867,199.2375 Q309.3695,199.2375 310.0914,199.8062 Q310.8242,200.375 311.1742,201.5016 L309.5883,201.8844 Q309.4242,201.2719 309.0851,200.9328 Q308.7461,200.5828 308.3086,200.5828 Q306.7336,200.5828 306.7336,203.2406 Z " fill="#000000"/><text fill="#000000" font-family="sans-serif" font-size="9.8" lengthAdjust="spacing" textLength="70.2652" x="321.2129" y="206.9078">PhysicalProduct</text><line style="stroke:#181818;stroke-width:0.3499999999999999;" x1="284.9" x2="406.5523" y1="214.55" y2="214.55"/><text fill="#000000" font-family="sans-serif" font-size="9.8" lengthAdjust="spacing" textLength="50.1149" x="288.4" y="226.5423">price: None</text><line style="stroke:#181818;stroke-width:0.3499999999999999;" x1="284.9" x2="406.5523" y1="231.419" y2="231.419"/><text fill="#000000" font-family="sans-serif" font-size="9.8" lengthAdjust="spacing" textLength="114.6523" x="288.4" y="243.4113">PhysicalProduct() -&gt; None</text><text fill="#000000" font-family="sans-serif" font-size="9.8" lengthAdjust="spacing" textLength="84.7021" x="288.4" y="254.6804">get_price() -&gt; None</text></g><!--reverse link Order to Product--><g id="link_Order_Product"><path codeLine="54" d="M653.8,530.754 C653.8,544.397 653.8,550.865 653.8,564.109 " fill="none" id="Order-backto-Product" style="stroke:#181818;stroke-width:0.6999999999999998;"/><polygon fill="none" points="653.8,522.354,651,526.554,653.8,530.754,656.6,526.554,653.8,522.354" style="stroke:#181818;stroke-width:0.6999999999999998;"/></g><!--link Methods to Order--><g id="link_Methods_Order"><path codeLine="55" d="M658.175,390.684 C658.175,403.228 658.175,414.127 658.175,428.19 " fill="none" id="Methods-to-Order" style="stroke:#181818;stroke-width:0.6999999999999998;"/><polygon fill="#181818" points="658.175,432.39,660.975,426.09,658.175,428.89,655.375,426.09,658.175,432.39" style="stroke:#181818;stroke-width:0.6999999999999998;"/><text fill="#000000" font-family="sans-serif" font-size="9.1" lengthAdjust="spacing" textLength="76.3813" x="581.175" y="409.5727">used by fancyFunc</text></g><!--reverse link NewOrder to Product--><g id="link_NewOrder_Product"><path codeLine="56" d="M805.7,530.754 C805.7,566.944 805.7,603.4 805.7,603.4 C805.7,603.4 745.059,603.4 700.406,603.4 " fill="none" id="NewOrder-backto-Product" style="stroke:#181818;stroke-width:0.6999999999999998;"/><polygon fill="#181818" points="805.7,522.354,802.9,526.554,805.7,530.754,808.5,526.554,805.7,522.354" style="stroke:#181818;stroke-width:0.6999999999999998;"/></g><!--reverse link Customer to NewOrder--><g id="link_Customer_NewOrder"><path codeLine="57" d="M775.075,290.626 C775.075,335.986 775.075,390.425 775.075,432.425 " fill="none" id="Customer-backto-NewOrder" style="stroke:#181818;stroke-width:0.6999999999999998;"/><polygon fill="none" points="775.075,282.226,772.275,286.426,775.075,290.626,777.875,286.426,775.075,282.226" style="stroke:#181818;stroke-width:0.6999999999999998;"/></g><!--link PhysicalProduct to Product--><g id="link_PhysicalProduct_Product"><path codeLine="58" d="M345.8,259.42 C345.8,354.249 345.8,616.7 345.8,616.7 C345.8,616.7 508.256,616.7 594.419,616.7 " fill="none" id="PhysicalProduct-to-Product" style="stroke:#181818;stroke-width:0.6999999999999998;"/><polygon fill="none" points="607.019,616.7,594.419,612.5,594.419,620.9,607.019,616.7" style="stroke:#181818;stroke-width:0.6999999999999998;"/></g><!--link DigitalProduct to Product--><g id="link_DigitalProduct_Product"><path codeLine="59" d="M489.3,265.167 C489.3,359.555 489.3,590.8 489.3,590.8 C489.3,590.8 545.867,590.8 594.503,590.8 " fill="none" id="DigitalProduct-to-Product" style="stroke:#181818;stroke-width:0.6999999999999998;"/><polygon fill="none" points="607.103,590.8,594.503,586.6,594.503,595,607.103,590.8" style="stroke:#181818;stroke-width:0.6999999999999998;"/></g><!--link Methods to PhysicalProduct--><g id="link_Methods_PhysicalProduct"><path codeLine="60" d="M354.55,103.789 C354.55,127.449 354.55,160.685 354.55,187.845 " fill="none" id="Methods-to-PhysicalProduct" style="stroke:#181818;stroke-width:0.6999999999999998;"/><polygon fill="#181818" points="354.55,192.045,357.35,185.745,354.55,188.545,351.75,185.745,354.55,192.045" style="stroke:#181818;stroke-width:0.6999999999999998;"/><text fill="#000000" font-family="sans-serif" font-size="9.1" lengthAdjust="spacing" textLength="95.1057" x="259.35" y="145.9527">used by create_product</text></g><!--link Methods to DigitalProduct--><g id="link_Methods_DigitalProduct"><path codeLine="61" d="M489.3,103.789 C489.3,125.86 489.3,155.722 489.3,182.245 " fill="none" id="Methods-to-DigitalProduct" style="stroke:#181818;stroke-width:0.6999999999999998;"/><polygon fill="#181818" points="489.3,186.445,492.1,180.145,489.3,182.945,486.5,180.145,489.3,186.445" style="stroke:#181818;stroke-width:0.6999999999999998;"/><text fill="#000000" font-family="sans-serif" font-size="9.1" lengthAdjust="spacing" textLength="95.1057" x="394.1" y="143.1527">used by create_product</text></g><!--link Customer to Order--><g id="link_Customer_Order"><path codeLine="62" d="M731.85,282.226 C731.85,356.419 731.85,477.4 731.85,477.4 C731.85,477.4 728.378,477.4 717.983,477.4 " fill="none" id="Customer-to-Order" style="stroke:#181818;stroke-width:0.6999999999999998;"/><polygon fill="#181818" points="713.783,477.4,720.083,480.2,717.283,477.4,720.083,474.6,713.783,477.4" style="stroke:#181818;stroke-width:0.6999999999999998;"/><text fill="#000000" font-family="sans-serif" font-size="9.1" lengthAdjust="spacing" textLength="75.8881" x="732.55" y="386.8787">used by add_order</text></g><!--link Customer to Methods--><g id="link_Customer_Methods"><path codeLine="63" d="M707.875,282.205 C707.875,300.244 707.875,315.224 707.875,330.33 " fill="none" id="Customer-to-Methods" style="stroke:#181818;stroke-width:0.6999999999999998;"/><polygon fill="#181818" points="707.875,334.53,710.675,328.23,707.875,331.03,705.075,328.23,707.875,334.53" style="stroke:#181818;stroke-width:0.6999999999999998;"/><text fill="#000000" font-family="sans-serif" font-size="9.1" lengthAdjust="spacing" textLength="147.715" x="559.475" y="306.3997">used by add_order use of fancyFunc</text></g><!--link DigitalProduct to Methods--><g id="link_DigitalProduct_Methods"><path codeLine="64" d="M546.413,226.1 C591.297,226.1 646.275,226.1 646.275,226.1 C646.275,226.1 646.275,290.136 646.275,330.12 " fill="none" id="DigitalProduct-to-Methods" style="stroke:#181818;stroke-width:0.6999999999999998;"/><polygon fill="#181818" points="646.275,334.32,649.075,328.02,646.275,330.82,643.475,328.02,646.275,334.32" style="stroke:#181818;stroke-width:0.6999999999999998;"/><text fill="#000000" font-family="sans-serif" font-size="9.1" lengthAdjust="spacing" textLength="138.1041" x="542.5" y="239.5147">used by __init__ use of funkyFunc</text></g><!--link Productfactory to PhysicalProduct--><g id="link_Productfactory_PhysicalProduct"><path codeLine="65" d="M277.361,81.2 C286.909,81.2 292.95,81.2 292.95,81.2 C292.95,81.2 292.95,145.131 292.95,187.845 " fill="none" id="Productfactory-to-PhysicalProduct" style="stroke:#181818;stroke-width:0.6999999999999998;"/><polygon fill="#181818" points="292.95,192.045,295.75,185.745,292.95,188.545,290.15,185.745,292.95,192.045" style="stroke:#181818;stroke-width:0.6999999999999998;"/><text fill="#000000" font-family="sans-serif" font-size="9.1" lengthAdjust="spacing" textLength="95.1057" x="197.75" y="126.8637">used by create_product</text></g><!--link Productfactory to DigitalProduct--><g id="link_Productfactory_DigitalProduct"><path codeLine="66" d="M154.7,103.684 C154.7,135.464 154.7,189.7 154.7,189.7 C154.7,189.7 332.395,189.7 427.959,189.7 " fill="none" id="Productfactory-to-DigitalProduct" style="stroke:#181818;stroke-width:0.6999999999999998;"/><polygon fill="#181818" points="432.159,189.7,425.859,186.9,428.659,189.7,425.859,192.5,432.159,189.7" style="stroke:#181818;stroke-width:0.6999999999999998;"/><text fill="#000000" font-family="sans-serif" font-size="9.1" lengthAdjust="spacing" textLength="95.1057" x="155.218" y="187.7357">used by create_product</text></g><text fill="#888888" font-family="sans-serif" font-size="7" lengthAdjust="spacing" textLength="42.417" x="408.8848" y="698.1659">Generated by</text><text fill="#888888" font-family="sans-serif" font-size="7" font-style="italic" lengthAdjust="spacing" textLength="51.3687" x="453.2466" y="698.1659">CodebaseGraph</text><!--SRC=[lLRDRgCm4Bxp5DuRknB9FOTUkjfg3xlD6w29FIHMm6RjGH5g- -vh74CW2OIqLI_8pE_tpOm7lfK6jWMmok9lHMWA5188ry3ti4NBCiWjHdOlLGa62fPBXLINoBIXdOuYdeErh3HQL9mEskHYiG6B2rvPqWMQnMCui9U8iLQQIh5YVxL29rDGOFUYZK1ZLowDfKQ71xJqt0YT2HxyoSdReF5tbZoqlY14wlrZRzPNRP5IqWHvQajKT7IJYgAt29Ho2f9QNM7X7t_GCHNM4yX0yVfNfVXbZgnI-wFg97qRhOz_-1W-hiVThqhmMB7ryU14_ofG9AdkRBnx70pwK3ZalCfT6u-a-tGdyRGLVZ-aDi8SL7sJq8kD9GESs2JAuET11fFHUGgsyVamb4Po73HgR0x2YpqT-lF03JQ4WYvsy7tCzQwsql5jeRwodt8hgHDSRyHbgc2UkPfeKtz5ng5NgB6hLLTH8ItNbQ9ECFIOglJe15uXVaRd4iUPnOmEJrv2dIGtvYswiHuIbsagnQhPiO9jwjCIYMxTmn_lGNMvUYV8TKlrpeOaoUl3NT1kZjedH1njnKq-f-OCxzSdPXpIdPTmf9_pHwtx9duqRY1w9N8ZOJeRc-ePVP-VD4sbafIcNSxscnlTjqY_Ra3kJpnpJZAjtUyQUqA5niczoNBvg0KsfNioKEwMo_y0]--></g></svg>