<svg xmlns="http://www.w3.org/2000/svg" xmlns:xlink="http://www.w3.org/1999/xlink" contentStyleType="text/css" height="519px" preserveAspectRatio="none" style="width:377px;height:519px;background:#FFFFFF;" version="1.1" viewBox="0 0 377 519" width="377px" zoomAndPan="magnify"><defs/><g><!--cluster Flask App--><g id="cluster_Flask App"><polygon fill="none" points="16,16,26,6,255,6,255,342,245,352,16,352,16,16" style="stroke:#181818;stroke-width:1.0;"/><line style="stroke:#181818;stroke-width:1.0;" x1="245" x2="255" y1="16" y2="6"/><line style="stroke:#181818;stroke-width:1.0;" x1="16" x2="245" y1="16" y2="16"/><line style="stroke:#181818;stroke-width:1.0;" x1="245" x2="245" y1="16" y2="352"/><text fill="#000000" font-family="sans-serif" font-size="14" font-weight="bold" lengthAdjust="spacing" textLength="66.9033" x="98.0483" y="32.1318">Flask App</text></g><!--cluster PlantUML Docker--><g id="cluster_PlantUML Docker"><polygon fill="none" points="135,410,145,400,326,400,326,492,316,502,135,502,135,410" style="stroke:#181818;stroke-width:1.0;"/><line style="stroke:#181818;stroke-width:1.0;" x1="316" x2="326" y1="410" y2="400"/><line style="stroke:#181818;stroke-width:1.0;" x1="135" x2="316" y1="410" y2="410"/><line style="stroke:#181818;stroke-width:1.0;" x1="316" x2="316" y1="410" y2="502"/><text fill="#000000" font-family="sans-serif" font-size="14" font-weight="bold" lengthAdjust="spacing" textLength="115.9102" x="168.5449" y="426.1318">PlantUML Docker</text></g><!--entity Frontend--><g id="elem_Frontend"><rect fill="#F1F1F1" height="46.0986" rx="2.5" ry="2.5" style="stroke:#181818;stroke-width:0.5;" width="96.0342" x="109" y="46"/><rect fill="#F1F1F1" height="10" style="stroke:#181818;stroke-width:0.5;" width="15" x="185.0342" y="51"/><rect fill="#F1F1F1" height="2" style="stroke:#181818;stroke-width:0.5;" width="4" x="183.0342" y="53"/><rect fill="#F1F1F1" height="2" style="stroke:#181818;stroke-width:0.5;" width="4" x="183.0342" y="57"/><text fill="#000000" font-family="sans-serif" font-size="14" lengthAdjust="spacing" textLength="56.0342" x="124" y="79.1318">Frontend</text></g><!--entity Py2Graph--><g id="elem_Py2Graph"><rect fill="#F1F1F1" height="46.0986" rx="2.5" ry="2.5" style="stroke:#181818;stroke-width:0.5;" width="103.0342" x="62.5" y="290"/><rect fill="#F1F1F1" height="10" style="stroke:#181818;stroke-width:0.5;" width="15" x="145.5342" y="295"/><rect fill="#F1F1F1" height="2" style="stroke:#181818;stroke-width:0.5;" width="4" x="143.5342" y="297"/><rect fill="#F1F1F1" height="2" style="stroke:#181818;stroke-width:0.5;" width="4" x="143.5342" y="301"/><text fill="#000000" font-family="sans-serif" font-size="14" lengthAdjust="spacing" textLength="63.0342" x="77.5" y="323.1318">Py2Graph</text></g><!--entity File Monitor--><g id="elem_File Monitor"><rect fill="#F1F1F1" height="46.0986" rx="2.5" ry="2.5" style="stroke:#181818;stroke-width:0.5;" width="113.1309" x="43.5" y="168"/><rect fill="#F1F1F1" height="10" style="stroke:#181818;stroke-width:0.5;" width="15" x="136.6309" y="173"/><rect fill="#F1F1F1" height="2" style="stroke:#181818;stroke-width:0.5;" width="4" x="134.6309" y="175"/><rect fill="#F1F1F1" height="2" style="stroke:#181818;stroke-width:0.5;" width="4" x="134.6309" y="179"/><text fill="#000000" font-family="sans-serif" font-size="14" lengthAdjust="spacing" textLength="73.1309" x="58.5" y="201.1318">File Monitor</text></g><!--entity PlantUML--><g id="elem_PlantUML"><rect fill="#F1F1F1" height="46.0986" rx="2.5" ry="2.5" style="stroke:#181818;stroke-width:0.5;" width="101.4688" x="164.5" y="440"/><rect fill="#F1F1F1" height="10" style="stroke:#181818;stroke-width:0.5;" width="15" x="245.9688" y="445"/><rect fill="#F1F1F1" height="2" style="stroke:#181818;stroke-width:0.5;" width="4" x="243.9688" y="447"/><rect fill="#F1F1F1" height="2" style="stroke:#181818;stroke-width:0.5;" width="4" x="243.9688" y="451"/><text fill="#000000" font-family="sans-serif" font-size="14" lengthAdjust="spacing" textLength="61.4688" x="179.5" y="473.1318">PlantUML</text></g><!--link File Monitor to Py2Graph--><g id="link_File Monitor_Py2Graph"><path d="M77.21,214.11 C66.61,227.14 57.61,244.14 64,260 C68.54,271.27 72.5248,277.2706 81.0548,285.5906 " fill="none" id="File Monitor-to-Py2Graph" style="stroke:#181818;stroke-width:1.0;"/><polygon fill="#181818" points="85.35,289.78,81.7002,280.6324,81.7707,286.2888,76.1143,286.3593,85.35,289.78" style="stroke:#181818;stroke-width:1.0;"/><text fill="#000000" font-family="sans-serif" font-size="13" lengthAdjust="spacing" textLength="170.5234" x="65" y="257.1938">On File Change start analysis</text></g><!--link Frontend to File Monitor--><g id="link_Frontend_File Monitor"><path d="M142.71,92.06 C137.13,101.14 130.91,111.88 126,122 C118.78,136.9 114.1365,148.7019 109.3765,162.1919 " fill="none" id="Frontend-to-File Monitor" style="stroke:#181818;stroke-width:1.0;"/><polygon fill="#181818" points="107.38,167.85,114.1468,160.6938,109.0437,163.1349,106.6027,158.0319,107.38,167.85" style="stroke:#181818;stroke-width:1.0;"/><text fill="#000000" font-family="sans-serif" font-size="13" lengthAdjust="spacing" textLength="125.0044" x="127" y="135.1938">Start watching project</text></g><!--link Py2Graph to PlantUML--><g id="link_Py2Graph_PlantUML"><path d="M126.05,336.19 C133.88,350.18 144.54,368.46 155,384 C168.08,403.41 180.5807,419.7137 192.8807,435.0137 " fill="none" id="Py2Graph-to-PlantUML" style="stroke:#181818;stroke-width:1.0;"/><polygon fill="#181818" points="196.64,439.69,194.1185,430.1694,193.5072,435.7931,187.8835,435.1818,196.64,439.69" style="stroke:#181818;stroke-width:1.0;"/><text fill="#000000" font-family="sans-serif" font-size="13" lengthAdjust="spacing" textLength="96.1099" x="156" y="381.1938">Send UML Code</text></g><!--link PlantUML to Frontend--><g id="link_PlantUML_Frontend"><path d="M230.88,439.69 C240.52,424.72 251.92,404.13 257,384 C285.47,271.09 317.43,221.54 257,122 C245.52,103.1 230.2695,92.9818 210.5795,85.0918 " fill="none" id="PlantUML-to-Frontend" style="stroke:#181818;stroke-width:1.0;"/><polygon fill="#181818" points="205.01,82.86,211.8764,89.9206,209.6512,84.7198,214.8521,82.4946,205.01,82.86" style="stroke:#181818;stroke-width:1.0;"/><text fill="#000000" font-family="sans-serif" font-size="13" lengthAdjust="spacing" textLength="78.7617" x="291" y="257.1938">Return Image</text></g><!--SRC=[PO_D2i8m48JlUOgXToyUUn2aeWYAelW0IrtQQjs4T4MA-Ewcnf-gkNuxyqq0iNj6CgsfEMBiN8AhGNYvFJahB1gOjw8i- -GNhDlXp9Ch_y2qgXbBAvLQty6RCIPwrZM9xfOBJ6n-P1zj_SedJqp8VFTWC1Zrd4Yn4ZmkifAaO3HANa52TTjKZVdiZidliXJRn_c5D2yhAU2yFN2kfcU8mjUYBXBQqAtFmcTC3qN1svTYmthsWlc92hu3]--></g></svg>